# xmcd CD database file
#
# Track frame offsets:
#	150
#	10467
#	27429
#	44415
#	56872
#	72053
#	90092
#	106499
#	119455
#	136384
#	151916
#	168900
#	174728
#
# Disc length: 2538 seconds
#
# Revision: 1
# Processed by: cddbd v1.5.2PL0 Copyright (c) Steve Scherf et al.
# Submitted via: CDValet v3.40 - Copyright (c) 1996 - 1998 Greg Leichner
#
DISCID=aa09e80d
DTITLE=Taylor, Chip - Songs From A Dutch Tour
DYEAR=1900
DGENRE=
TTITLE0=Red Sidewalk
TTITLE1=Rose Of Arnhem Town (For "Roos")
TTITLE2=Down By Law (Paint Me On A Postcard)
TTITLE3=Dorine, Dorine (Pretty Little Bakeshop Girl)
TTITLE4=Song For A German Girl (Named Lisa)
TTITLE5=Dance With A Hole In Your Shoe
TTITLE6=Song For A Dutch Girl (Tess)
TTITLE7=Shotgun Man
TTITLE8=Mema, I Miss You From Here
TTITLE9=Faded Blue
TTITLE10=Jack Of Diamonds - Queen Of Hearts
TTITLE11=Intro To That's It From Here
TTITLE12=That's It From Here (Tribute To Leo Blokhuis)
EXTD=
EXTT0=
EXTT1=
EXTT2=
EXTT3=
EXTT4=
EXTT5=
EXTT6=
EXTT7=
EXTT8=
EXTT9=
EXTT10=
EXTT11=
EXTT12=
PLAYORDER=
